# Exported from ProBuilder
# http://www.procore3d.com/probuilder
# 11/11/2017 3:58:51 PM

mtllib ./Rupee.mtl
o Rupee

g BlueRupeePickup
v -4.262163 0.6942326 81.56705
v -4.262163 0.3239752 81.56705
v -4.447291 0.1388465 81.56705
v -4.63242 0.3239752 81.56705
v -4.63242 0.6942326 81.56705
v -4.447291 0.8793613 81.56705
v -4.447291 0.8793613 81.38191
v -4.63242 0.6942326 81.38191
v -4.63242 0.3239752 81.38191
v -4.447291 0.1388465 81.38191
v -4.262163 0.3239752 81.38191
v -4.262163 0.6942326 81.38191
v -4.63242 0.3239752 81.56705
v -4.724984 0.2314109 81.47448
v -4.724984 0.7867969 81.47448
v -4.63242 0.6942326 81.56705
v -4.724984 0.2314109 81.47448
v -4.63242 0.3239752 81.38191
v -4.63242 0.6942326 81.38191
v -4.724984 0.7867969 81.47448
v -4.262163 0.3239752 81.38191
v -4.169599 0.2314109 81.47448
v -4.169599 0.7867969 81.47448
v -4.262163 0.6942326 81.38191
v -4.169599 0.2314109 81.47448
v -4.262163 0.3239752 81.56705
v -4.262163 0.6942326 81.56705
v -4.169599 0.7867969 81.47448
v -4.447291 0.8793613 81.38191
v -4.262163 0.6942326 81.38191
v -4.169599 0.7867969 81.47448
v -4.447291 1.018208 81.47448
v -4.169599 0.7867969 81.47448
v -4.262163 0.6942326 81.56705
v -4.447291 0.8793613 81.56705
v -4.447291 1.018208 81.47448
v -4.63242 0.6942326 81.38191
v -4.447291 0.8793613 81.38191
v -4.447291 1.018208 81.47448
v -4.724984 0.7867969 81.47448
v -4.447291 1.018208 81.47448
v -4.447291 0.8793613 81.56705
v -4.63242 0.6942326 81.56705
v -4.724984 0.7867969 81.47448
v -4.447291 0.1388465 81.38191
v -4.447291 0 81.47448
v -4.169599 0.2314109 81.47448
v -4.262163 0.3239752 81.38191
v -4.447291 0 81.47448
v -4.447291 0.1388465 81.56705
v -4.262163 0.3239752 81.56705
v -4.169599 0.2314109 81.47448
v -4.63242 0.3239752 81.38191
v -4.724984 0.2314109 81.47448
v -4.447291 0 81.47448
v -4.447291 0.1388465 81.38191
v -4.724984 0.2314109 81.47448
v -4.63242 0.3239752 81.56705
v -4.447291 0.1388465 81.56705
v -4.447291 0 81.47448

vn 0 0 1
vn 0 0 1
vn 0 0 1
vn 0 0 1
vn 0 0 1
vn 0 0 1
vn 0 0 -1
vn 0 0 -1
vn 0 0 -1
vn 0 0 -1
vn 0 0 -1
vn 0 0 -1
vn -0.7071068 0 0.7071068
vn -0.7071068 0 0.7071068
vn -0.7071068 0 0.7071068
vn -0.7071068 0 0.7071068
vn -0.7071067 0 -0.7071067
vn -0.7071068 0 -0.7071068
vn -0.7071067 0 -0.7071067
vn -0.7071068 0 -0.7071068
vn 0.7071077 0 -0.7071058
vn 0.7071077 0 -0.7071059
vn 0.7071077 0 -0.7071059
vn 0.7071077 0 -0.7071059
vn 0.7071078 0 0.7071059
vn 0.7071077 0 0.7071059
vn 0.7071077 0 0.7071059
vn 0.7071077 0 0.7071059
vn 0.4151394 0.4612657 -0.7841513
vn 0.4082486 0.4082486 -0.8164963
vn 0.4151394 0.4612657 -0.7841513
vn 0.419591 0.5035087 -0.7552631
vn 0.3706252 0.4447498 0.815374
vn 0.4151394 0.4612657 0.7841513
vn 0.4850713 0.4850712 0.7276069
vn 0.4151394 0.4612657 0.7841513
vn -0.415139 0.4612656 -0.7841516
vn -0.4850712 0.4850712 -0.7276069
vn -0.415139 0.4612656 -0.7841516
vn -0.3706247 0.4447496 -0.8153743
vn -0.4195907 0.5035088 0.7552632
vn -0.4151391 0.4612657 0.7841516
vn -0.4082483 0.4082483 0.8164966
vn -0.4151391 0.4612657 0.7841516
vn 0.4151394 -0.4612657 -0.7841513
vn 0.419591 -0.5035087 -0.7552631
vn 0.4151394 -0.4612657 -0.7841513
vn 0.4082486 -0.4082486 -0.8164963
vn 0.4151394 -0.4612657 0.7841513
vn 0.4850713 -0.4850712 0.7276069
vn 0.4151394 -0.4612657 0.7841513
vn 0.3706252 -0.4447498 0.815374
vn -0.415139 -0.4612656 -0.7841516
vn -0.3706247 -0.4447496 -0.8153743
vn -0.415139 -0.4612656 -0.7841516
vn -0.4850712 -0.4850712 -0.7276069
vn -0.4151391 -0.4612657 0.7841516
vn -0.4082483 -0.4082483 0.8164966
vn -0.4151391 -0.4612657 0.7841516
vn -0.4195907 -0.5035088 0.7552632

vt 0.5 1.875
vt 0.5 0.875
vt 0 0.375
vt -0.5 0.875
vt -0.5 1.875
vt 0 2.375
vt 0 2.375
vt 0.5 1.875
vt 0.5 0.875
vt 0 0.375
vt -0.5 0.875
vt -0.5 1.875
vt 0.25 0.875
vt 0 0.625
vt 0 2.125
vt 0.25 1.875
vt 0 0.625
vt -0.25 0.875
vt -0.25 1.875
vt 0 2.125
vt -0.25 0.875
vt 0 0.625
vt 0 2.125
vt -0.25 1.875
vt 0 0.625
vt 0.25 0.875
vt 0.25 1.875
vt 0 2.125
vt 0 2.375
vt 0.5 1.875
vt 0.75 2.125
vt 0 2.75
vt 0.75 2.125
vt 0.5 1.875
vt 0 2.375
vt 0 2.75
vt -0.5 1.875
vt 0 2.375
vt 0 2.75
vt -0.75 2.125
vt 0 2.75
vt 0 2.375
vt -0.5 1.875
vt -0.75 2.125
vt 0 0.375
vt 0 0
vt 0.75 0.625
vt 0.5 0.875
vt 0 0
vt 0 0.375
vt 0.5 0.875
vt 0.75 0.625
vt -0.5 0.875
vt -0.75 0.625
vt 0 0
vt 0 0.375
vt -0.75 0.625
vt -0.5 0.875
vt 0 0.375
vt 0 0

g BlueRupeePickup_0
usemtl BlueRupee
f 16/16/16 15/15/15 14/14/14 13/13/13
f 20/20/20 19/19/19 18/18/18 17/17/17
f 21/21/21 24/24/24 23/23/23 22/22/22
f 25/25/25 28/28/28 27/27/27 26/26/26
f 32/32/32 31/31/31 30/30/30 29/29/29
f 35/35/35 34/34/34 33/33/33 36/36/36
f 40/40/40 39/39/39 38/38/38 37/37/37
f 43/43/43 42/42/42 41/41/41 44/44/44
f 48/48/48 47/47/47 46/46/46 45/45/45
f 52/52/52 51/51/51 50/50/50 49/49/49
f 56/56/56 55/55/55 54/54/54 53/53/53
f 60/60/60 59/59/59 58/58/58 57/57/57

g BlueRupeePickup_1
usemtl BlueRupee
f 5/5/5 4/4/4 3/3/3
f 6/6/6 2/2/2 1/1/1
f 6/6/6 3/3/3 2/2/2
f 5/5/5 3/3/3 6/6/6
f 7/7/7 10/10/10 8/8/8
f 11/11/11 10/10/10 7/7/7
f 12/12/12 11/11/11 7/7/7
f 10/10/10 9/9/9 8/8/8

